<svg xmlns="http://www.w3.org/2000/svg" xmlns:xlink="http://www.w3.org/1999/xlink" viewBox="0 0 738 347" width="738" height="347"><path d="M 179.000,123.203 C 183.500,119.203 183.183,118.735 188.000,115.203" stroke-width="5.083" stroke="black" fill="none" stroke-linecap="round"/><path d="M 188.000,115.203 C 190.683,113.235 190.961,113.621 194.000,112.203" stroke-width="4.244" stroke="black" fill="none" stroke-linecap="round"/><path d="M 194.000,112.203 C 198.461,110.121 198.474,110.143 203.000,108.203" stroke-width="3.799" stroke="black" fill="none" stroke-linecap="round"/><path d="M 203.000,108.203 C 208.974,105.643 208.895,105.423 215.000,103.203" stroke-width="3.349" stroke="black" fill="none" stroke-linecap="round"/><path d="M 215.000,103.203 C 225.395,99.423 225.410,99.341 236.000,96.203" stroke-width="2.659" stroke="black" fill="none" stroke-linecap="round"/><path d="M 236.000,96.203 C 238.910,95.341 240.002,93.871 242.000,95.203" stroke-width="3.549" stroke="black" fill="none" stroke-linecap="round"/><path d="M 242.000,95.203 C 244.502,96.871 245.000,98.703 245.000,102.203" stroke-width="4.394" stroke="black" fill="none" stroke-linecap="round"/><path d="M 245.000,102.203 C 245.000,105.703 243.526,105.715 242.000,109.203" stroke-width="4.076" stroke="black" fill="none" stroke-linecap="round"/><path d="M 242.000,109.203 C 240.026,113.715 240.423,113.927 238.000,118.203" stroke-width="3.702" stroke="black" fill="none" stroke-linecap="round"/><path d="M 238.000,118.203 C 231.923,128.927 231.692,128.830 225.000,139.203" stroke-width="2.589" stroke="black" fill="none" stroke-linecap="round"/><path d="M 225.000,139.203 C 221.692,144.330 221.573,144.256 218.000,149.203" stroke-width="3.033" stroke="black" fill="none" stroke-linecap="round"/><path d="M 218.000,149.203 C 215.073,153.256 214.905,153.136 212.000,157.203" stroke-width="3.372" stroke="black" fill="none" stroke-linecap="round"/><path d="M 212.000,157.203 C 209.905,160.136 206.375,164.625 208.000,163.203" stroke-width="3.798" stroke="black" fill="none" stroke-linecap="round"/><path d="M 208.000,163.203 C 214.375,157.625 217.854,153.051 228.000,143.203" stroke-width="3.895" stroke="black" fill="none" stroke-linecap="round"/><path d="M 228.000,143.203 C 234.854,136.551 234.862,136.548 242.000,130.203" stroke-width="2.857" stroke="black" fill="none" stroke-linecap="round"/><path d="M 242.000,130.203 C 248.362,124.548 248.480,124.680 255.000,119.203" stroke-width="2.824" stroke="black" fill="none" stroke-linecap="round"/><path d="M 255.000,119.203 C 260.980,114.180 261.026,114.234 267.000,109.203" stroke-width="2.898" stroke="black" fill="none" stroke-linecap="round"/><path d="M 267.000,109.203 C 270.526,106.234 270.325,105.960 274.000,103.203" stroke-width="3.385" stroke="black" fill="none" stroke-linecap="round"/><path d="M 274.000,103.203 C 276.325,101.460 278.814,99.087 279.000,100.203" stroke-width="3.910" stroke="black" fill="none" stroke-linecap="round"/><path d="M 279.000,100.203 C 279.314,102.087 277.298,104.862 275.000,109.203" stroke-width="4.431" stroke="black" fill="none" stroke-linecap="round"/><path d="M 275.000,109.203 C 272.798,113.362 272.391,113.139 270.000,117.203" stroke-width="3.828" stroke="black" fill="none" stroke-linecap="round"/><path d="M 270.000,117.203 C 267.391,121.639 267.579,121.749 265.000,126.203" stroke-width="3.595" stroke="black" fill="none" stroke-linecap="round"/><path d="M 265.000,126.203 C 262.079,131.249 262.165,131.311 259.000,136.203" stroke-width="3.349" stroke="black" fill="none" stroke-linecap="round"/><path d="M 259.000,136.203 C 256.665,139.811 256.385,139.626 254.000,143.203" stroke-width="3.560" stroke="black" fill="none" stroke-linecap="round"/><path d="M 254.000,143.203 C 251.385,147.126 248.115,152.266 249.000,151.203" stroke-width="3.545" stroke="black" fill="none" stroke-linecap="round"/><path d="M 249.000,151.203 C 250.615,149.266 253.669,143.937 259.000,137.203" stroke-width="4.157" stroke="black" fill="none" stroke-linecap="round"/><path d="M 259.000,137.203 C 263.169,131.937 263.137,131.823 268.000,127.203" stroke-width="3.453" stroke="black" fill="none" stroke-linecap="round"/><path d="M 268.000,127.203 C 273.137,122.323 273.382,122.553 279.000,118.203" stroke-width="3.107" stroke="black" fill="none" stroke-linecap="round"/><path d="M 279.000,118.203 C 288.882,110.553 288.864,110.501 299.000,103.203" stroke-width="2.407" stroke="black" fill="none" stroke-linecap="round"/><path d="M 299.000,103.203 C 301.364,101.501 303.454,98.930 304.000,100.203" stroke-width="3.427" stroke="black" fill="none" stroke-linecap="round"/><path d="M 304.000,100.203 C 304.954,102.430 303.295,105.282 302.000,110.203" stroke-width="4.341" stroke="black" fill="none" stroke-linecap="round"/><path d="M 302.000,110.203 C 300.795,114.782 300.363,114.661 299.000,119.203" stroke-width="3.859" stroke="black" fill="none" stroke-linecap="round"/><path d="M 299.000,119.203 C 295.863,129.661 295.738,129.644 293.000,140.203" stroke-width="2.688" stroke="black" fill="none" stroke-linecap="round"/><path d="M 293.000,140.203 C 292.238,143.144 291.314,143.458 292.000,146.203" stroke-width="3.564" stroke="black" fill="none" stroke-linecap="round"/><path d="M 292.000,146.203 C 292.814,149.458 293.030,151.015 296.000,152.203" stroke-width="4.255" stroke="black" fill="none" stroke-linecap="round"/><path d="M 296.000,152.203 C 300.530,154.015 301.651,153.133 307.000,152.203" stroke-width="3.565" stroke="black" fill="none" stroke-linecap="round"/><path d="M 307.000,152.203 C 313.151,151.133 313.134,150.549 319.000,148.203" stroke-width="3.258" stroke="black" fill="none" stroke-linecap="round"/><path d="M 319.000,148.203 C 328.134,144.549 328.146,144.504 337.000,140.203" stroke-width="2.772" stroke="black" fill="none" stroke-linecap="round"/><path d="M 337.000,140.203 C 345.646,136.004 345.789,136.180 354.000,131.203" stroke-width="2.678" stroke="black" fill="none" stroke-linecap="round"/><path d="M 354.000,131.203 C 362.289,126.180 362.450,126.280 370.000,120.203" stroke-width="2.581" stroke="black" fill="none" stroke-linecap="round"/><path d="M 370.000,120.203 C 382.950,109.780 383.542,110.043 395.000,98.203" stroke-width="2.064" stroke="black" fill="none" stroke-linecap="round"/><path d="M 395.000,98.203 C 398.542,94.543 397.832,93.849 400.000,89.203" stroke-width="2.897" stroke="black" fill="none" stroke-linecap="round"/><path d="M 400.000,89.203 C 401.332,86.349 402.745,85.688 402.000,83.203" stroke-width="3.680" stroke="black" fill="none" stroke-linecap="round"/><path d="M 402.000,83.203 C 401.245,80.688 399.976,79.673 397.000,79.203" stroke-width="3.910" stroke="black" fill="none" stroke-linecap="round"/><path d="M 397.000,79.203 C 390.476,78.173 389.934,79.188 383.000,80.203" stroke-width="3.222" stroke="black" fill="none" stroke-linecap="round"/><path d="M 383.000,80.203 C 369.434,82.188 369.315,81.929 356.000,85.203" stroke-width="2.389" stroke="black" fill="none" stroke-linecap="round"/><path d="M 356.000,85.203 C 338.815,89.429 338.147,88.139 322.000,95.203" stroke-width="1.902" stroke="black" fill="none" stroke-linecap="round"/><path d="M 322.000,95.203 C 298.147,105.639 298.049,106.376 276.000,120.203" stroke-width="1.503" stroke="black" fill="none" stroke-linecap="round"/><path d="M 276.000,120.203 C 268.549,124.876 268.689,125.566 263.000,132.203" stroke-width="2.166" stroke="black" fill="none" stroke-linecap="round"/><path d="M 263.000,132.203 C 259.689,136.066 259.886,136.489 258.000,141.203" stroke-width="2.993" stroke="black" fill="none" stroke-linecap="round"/><path d="M 258.000,141.203 C 256.886,143.989 254.937,145.747 257.000,147.203" stroke-width="3.715" stroke="black" fill="none" stroke-linecap="round"/><path d="M 257.000,147.203 C 263.437,151.747 265.677,152.371 275.000,153.203" stroke-width="3.613" stroke="black" fill="none" stroke-linecap="round"/><path d="M 275.000,153.203 C 293.677,154.871 294.043,153.403 313.000,152.203" stroke-width="2.059" stroke="black" fill="none" stroke-linecap="round"/><path d="M 313.000,152.203 C 333.543,150.903 333.738,151.727 354.000,148.203" stroke-width="1.749" stroke="black" fill="none" stroke-linecap="round"/><path d="M 354.000,148.203 C 391.238,141.727 391.301,141.164 428.000,132.203" stroke-width="1.130" stroke="black" fill="none" stroke-linecap="round"/><path d="M 428.000,132.203 C 434.301,130.664 438.457,129.981 440.000,127.203" stroke-width="2.062" stroke="black" fill="none" stroke-linecap="round"/><path d="M 440.000,127.203 C 440.957,125.481 436.966,123.508 433.000,123.203" stroke-width="3.339" stroke="black" fill="none" stroke-linecap="round"/><path d="M 433.000,123.203 C 404.466,121.008 403.969,121.612 375.000,122.203" stroke-width="1.565" stroke="black" fill="none" stroke-linecap="round"/><path d="M 375.000,122.203 C 354.969,122.612 354.912,122.991 335.000,125.203" stroke-width="1.640" stroke="black" fill="none" stroke-linecap="round"/><path d="M 335.000,125.203 C 323.412,126.491 323.347,126.641 312.000,129.203" stroke-width="2.091" stroke="black" fill="none" stroke-linecap="round"/><path d="M 312.000,129.203 C 307.847,130.141 304.857,130.202 304.000,132.203" stroke-width="2.991" stroke="black" fill="none" stroke-linecap="round"/><path d="M 304.000,132.203 C 303.357,133.702 306.161,135.171 309.000,136.203" stroke-width="4.029" stroke="black" fill="none" stroke-linecap="round"/><path d="M 309.000,136.203 C 311.661,137.171 312.004,136.067 315.000,136.203" stroke-width="4.118" stroke="black" fill="none" stroke-linecap="round"/><path d="M 315.000,136.203 C 334.004,137.067 334.011,137.016 353.000,138.203" stroke-width="3.732" stroke="black" fill="none" stroke-linecap="round"/><path d="M 353.000,138.203 C 382.011,140.016 381.984,140.462 411.000,142.203" stroke-width="1.586" stroke="black" fill="none" stroke-linecap="round"/><path d="M 411.000,142.203 C 456.984,144.962 456.982,145.079 503.000,147.203" stroke-width="1.125" stroke="black" fill="none" stroke-linecap="round"/><path d="M 503.000,147.203 C 554.482,149.579 554.481,150.471 606.000,151.203" stroke-width="1.125" stroke="black" fill="none" stroke-linecap="round"/></svg>