<?xml version="1.0" encoding="UTF-8"?>
<svg version="1.1" xmlns="http://www.w3.org/2000/svg" width="750" height="744">
<path d="M0 0 C247.5 0 495 0 750 0 C750 245.52 750 491.04 750 744 C502.5 744 255 744 0 744 C0 498.48 0 252.96 0 0 Z " fill="#FEFEFE" transform="translate(0,0)"/>
<path d="M0 0 C3.68121143 3.00190756 6.99313448 6.29502802 10.27978516 9.72021484 C11.54822266 11.02925781 11.54822266 11.02925781 12.84228516 12.36474609 C16.39574911 16.16952411 19.41713884 19.76440333 21.90478516 24.34521484 C23.6687307 27.26730646 23.88123424 27.60634315 27.34228516 28.59521484 C32.14229956 28.05481587 36.41949579 25.37872043 40.60791016 23.13037109 C45.39402959 20.60436362 49.66665237 20.47199091 54.96728516 20.40771484 C55.74523437 20.37871094 56.52318359 20.34970703 57.32470703 20.31982422 C64.21187916 20.24515096 69.10262995 22.20660709 74.48681641 26.46630859 C75.01662109 27.02447266 75.54642578 27.58263672 76.09228516 28.15771484 C76.63498047 28.71330078 77.17767578 29.26888672 77.73681641 29.84130859 C79.27978516 31.72021484 79.27978516 31.72021484 80.51416016 34.21630859 C82.92259583 37.6318114 85.997591 38.7448006 89.71728516 40.34521484 C101.63746268 45.89761464 112.33278937 54.76955115 117.29931641 67.29052734 C118.88423784 72.13937375 119.27978516 75.45682442 119.27978516 80.72021484 C112.84478516 80.22521484 112.84478516 80.22521484 106.27978516 79.72021484 C106.09416016 78.44146484 105.90853516 77.16271484 105.71728516 75.84521484 C103.53720669 66.28293962 97.42090468 60.20716094 89.41650391 54.99755859 C87.33100692 53.71453968 87.33100692 53.71453968 85.27978516 52.72021484 C85.32619141 53.52201172 85.37259766 54.32380859 85.42041016 55.14990234 C85.65407038 62.51019937 85.07949346 69.27044522 83.59228516 76.47021484 C83.36943848 77.64946533 83.36943848 77.64946533 83.14208984 78.85253906 C82.64306641 81.07958984 82.64306641 81.07958984 81.27978516 84.72021484 C78.94384766 86.16552734 78.94384766 86.16552734 76.27978516 86.72021484 C75.46638672 86.92904297 74.65298828 87.13787109 73.81494141 87.35302734 C69.23504409 88.26466567 64.97754556 88.96746539 60.27978516 88.72021484 C61.2375234 83.45265452 62.64922112 78.64722058 64.5690918 73.66503906 C67.85805662 65.0270625 70.7248567 56.41198959 67.38916016 47.28271484 C64.14459335 41.39923371 59.57540656 38.81875531 53.27978516 36.72021484 C47.2863802 36.3138823 42.59069611 36.8075274 37.27978516 39.72021484 C30.2931123 46.05607434 28.00899794 54.61091946 25.02978516 63.28271484 C24.46731319 64.88834455 23.90390644 66.49364706 23.33959961 68.09863281 C22.19350732 71.36985425 21.05862823 74.6446653 19.93261719 77.92285156 C18.62503294 81.72868998 17.29366876 85.52548472 15.95120239 89.31913757 C14.99842385 92.02123832 14.0604143 94.72827128 13.12731934 97.43722534 C12.48490495 99.29428055 11.83026611 101.14709278 11.17529297 102.99975586 C7.45023346 113.96108311 7.45023346 113.96108311 9.31176758 125.06396484 C12.10869671 129.98060342 15.58265936 133.22181162 20.52978516 135.97021484 C27.68408256 137.92138686 35.00693624 136.43547574 42.12744141 134.97021484 C43.02474472 134.79264648 43.92204803 134.61507812 44.84654236 134.43212891 C47.68012391 133.86949454 50.51116085 133.29507221 53.34228516 132.72021484 C55.27637329 132.33401281 57.21061692 131.94858864 59.14501953 131.56396484 C63.85880716 130.62646057 68.5689628 129.67301322 73.27978516 128.72021484 C73.27978516 136.31021484 73.27978516 143.90021484 73.27978516 151.72021484 C74.74416016 149.86396484 76.20853516 148.00771484 77.71728516 146.09521484 C78.45906006 145.15742188 78.45906006 145.15742188 79.21582031 144.20068359 C81.54858174 141.18565785 83.65210709 138.18815223 85.49072266 134.84521484 C90.70266737 125.44896472 90.70266737 125.44896472 95.62744141 123.17333984 C99.90595034 122.16886155 103.89299212 121.72021484 108.27978516 121.72021484 C102.25633173 138.26130457 88.20768434 158.08017899 75.02587891 169.70849609 C73.0991616 171.59254712 73.0991616 171.59254712 72.80322266 174.11865234 C73.43329583 177.55823211 74.87583029 179.48992199 76.90478516 182.34521484 C110.74432701 232.25853908 127.19270642 294.81161967 134.02978516 353.97021484 C134.15772461 355.06487061 134.28566406 356.15952637 134.41748047 357.28735352 C135.81691018 370.19857087 136.81393207 380.84933412 128.52978516 391.53271484 C124.37591576 396.08823065 118.28027971 399.27972718 112.11572266 399.95849609 C103.20703417 400.22717083 96.32183262 397.48764096 89.77978516 391.39990234 C82.78518793 383.56741065 82.56828092 372.99350481 81.63696289 363.01245117 C79.69967273 342.32154038 75.93716642 322.29619957 70.86572266 302.16162109 C69.49622439 296.71024372 68.3095982 291.24540629 67.27978516 285.72021484 C66.61978516 285.72021484 65.95978516 285.72021484 65.27978516 285.72021484 C65.1425 287.35990234 65.1425 287.35990234 65.00244141 289.03271484 C64.31084345 294.50776506 62.55169696 299.5352378 60.71728516 304.72021484 C60.36085938 305.7333374 60.00443359 306.74645996 59.63720703 307.7902832 C56.49954514 316.49260777 52.71971336 324.61933193 48.27978516 332.72021484 C47.66619141 333.88423828 47.05259766 335.04826172 46.42041016 336.24755859 C34.35434153 358.41023423 11.18457553 391.68765128 -13.72021484 399.72021484 C-21.77748145 401.12097527 -27.97573409 399.1676623 -34.72021484 394.72021484 C-40.65747058 389.68645455 -44.2598216 384.34745838 -45.02880859 376.61865234 C-45.34629466 367.94069982 -44.46727091 362.35223425 -38.72021484 355.72021484 C-35.10555879 352.02770074 -31.24077564 348.61340785 -27.37207031 345.19189453 C-6.5525556 326.64326393 7.28209976 302.65128848 14.27978516 275.72021484 C14.59302734 274.57552734 14.90626953 273.43083984 15.22900391 272.25146484 C19.04320722 257.21792203 19.57108649 242.07510397 19.40478516 226.65771484 C19.39471482 225.00081934 19.38559627 223.34391776 19.37744141 221.68701172 C19.35579577 217.69792448 19.32150025 213.70914058 19.27978516 209.72021484 C18.00590942 210.13811279 18.00590942 210.13811279 16.70629883 210.56445312 C10.60330279 212.5144717 4.97718029 214.1233189 -1.40771484 214.59521484 C-7.40195239 215.29464481 -11.22962452 216.69003882 -16.18115234 220.06005859 C-19.16893367 222.01360792 -22.23825287 223.51887261 -25.47021484 225.03271484 C-26.51693359 225.52384766 -27.56365234 226.01498047 -28.64208984 226.52099609 C-31.69464197 227.71025181 -34.47889855 228.3077719 -37.72021484 228.72021484 C-37.50365234 229.97511719 -37.50365234 229.97511719 -37.28271484 231.25537109 C-35.13285431 244.7367882 -35.29964672 257.25580468 -37.72021484 270.72021484 C-41.68021484 270.39021484 -45.64021484 270.06021484 -49.72021484 269.72021484 C-49.72021484 257.18021484 -49.72021484 244.64021484 -49.72021484 231.72021484 C-54.01021484 231.72021484 -58.30021484 231.72021484 -62.72021484 231.72021484 C-74.67833372 227.87162486 -83.96870507 221.3110671 -89.92871094 210.10620117 C-97.74273573 194.54958783 -100.26658523 178.82381606 -102.72021484 161.72021484 C-102.91744141 160.47240234 -103.11466797 159.22458984 -103.31787109 157.93896484 C-107.02963404 126.84442318 -104.06188236 88.57025637 -85.10693359 62.50146484 C-81.34253259 59.69202645 -77.10867567 58.54614136 -72.65771484 57.15771484 C-71.71774658 56.85470459 -70.77777832 56.55169434 -69.80932617 56.23950195 C-63.49584467 54.22235417 -57.15818028 52.3033211 -50.72021484 50.72021484 C-60.34541414 51.05814557 -69.39046971 51.77718554 -78.76708984 54.09912109 C-83.92659662 55.18425546 -83.92659662 55.18425546 -86.72021484 54.72021484 C-95.54874866 45.21831828 -100.18664742 30.91996088 -100.05615234 18.23583984 C-99.57727746 13.22435845 -98.08413591 10.38241462 -94.72021484 6.72021484 C-94.19685547 6.12982422 -93.67349609 5.53943359 -93.13427734 4.93115234 C-69.70550163 -18.29300524 -25.78275742 -19.18155186 0 0 Z " fill="#43977F" transform="translate(356.72021484375,207.27978515625)"/>
<path d="M0 0 C10.15505428 7.54673554 16.66852319 17.27438129 19.28125 29.6953125 C20.92365475 43.91680877 18.09520234 57.1577354 9.28125 68.6953125 C3.47888882 74.97953066 -2.78205824 79.50783468 -10.71875 82.6953125 C-12.03359375 83.24251953 -12.03359375 83.24251953 -13.375 83.80078125 C-23.08460351 86.39832705 -36.67347306 86.48551077 -45.7265625 81.89453125 C-46.38398438 81.49878906 -47.04140625 81.10304688 -47.71875 80.6953125 C-48.41742188 80.30988281 -49.11609375 79.92445313 -49.8359375 79.52734375 C-51.87589232 78.3380116 -53.79500231 77.06366859 -55.71875 75.6953125 C-56.31429688 75.27765625 -56.90984375 74.86 -57.5234375 74.4296875 C-66.87609892 67.19696267 -71.80914569 56.11972784 -73.71875 44.6953125 C-74.7533619 30.00721571 -71.37116016 18.43295525 -62.19921875 6.76171875 C-45.71379055 -11.24790963 -20.01523813 -12.93192333 0 0 Z " fill="#43977F" transform="translate(473.71875,141.3046875)"/>
<path d="M0 0 C4.35699098 2.46622131 7.04335342 5.33670683 9.3125 9.875 C10.69191457 19.60319592 7.24021174 28.03165938 3.875 36.9375 C3.35192368 38.36334929 2.83042749 39.78977929 2.31054688 41.21679688 C-1.33592609 51.17185218 -1.33592609 51.17185218 -2.6875 53.875 C-2.05473145 53.70701904 -1.42196289 53.53903809 -0.77001953 53.3659668 C8.34393064 51.01303947 17.5332555 49.09214385 26.75830078 47.23071289 C29.44103195 46.68678389 32.12079817 46.12955526 34.80078125 45.57226562 C36.53629136 45.2205293 38.27196332 44.86959041 40.0078125 44.51953125 C40.79350616 44.35395218 41.57919983 44.18837311 42.38870239 44.01777649 C49.56234035 42.59987301 57.05032222 41.30184495 63.6875 44.9375 C67.99748315 48.04347976 70.72556522 51.45458698 71.65234375 56.85546875 C71.95490932 63.11252476 70.04608156 67.91916439 65.875 72.625 C57.49283017 78.91089311 43.44204428 79.37076748 33.26953125 81.44921875 C32.47535986 81.61195597 31.68118847 81.77469318 30.86295128 81.94236183 C26.67103667 82.80121919 22.47850053 83.65695994 18.28540039 84.51000977 C13.98032639 85.38646869 9.67752604 86.27360933 5.3751421 87.16316509 C2.03816719 87.85109887 -1.30038162 88.53113961 -4.63939857 89.20908546 C-6.22627751 89.53268001 -7.8125671 89.8591799 -9.39821434 90.18875694 C-31.12768455 94.69766359 -31.12768455 94.69766359 -37 90.875 C-41.01769993 88.02010744 -43.52223722 84.68937518 -44.6875 79.875 C-45.27409263 71.97041572 -43.36989781 65.92101223 -40.671875 58.53515625 C-40.05351776 56.79195351 -40.05351776 56.79195351 -39.42266846 55.01353455 C-38.10745696 51.31666222 -36.77260107 47.62722949 -35.4375 43.9375 C-34.55473595 41.46203524 -33.67321309 38.98612749 -32.79296875 36.50976562 C-21.99409626 6.24151079 -21.99409626 6.24151079 -17.5625 2.8125 C-16.87929688 2.26464844 -16.19609375 1.71679688 -15.4921875 1.15234375 C-10.57807057 -2.32582992 -5.50823622 -1.68047885 0 0 Z " fill="#449880" transform="translate(412.6875,248.125)"/>
<path d="M0 0 C3 1 3 1 4.1875 3.0625 C4.455625 3.701875 4.72375 4.34125 5 5 C2.69 5.66 0.38 6.32 -2 7 C-1.34 4.69 -0.68 2.38 0 0 Z " fill="#E8F4F1" transform="translate(363,401)"/>
</svg>
